<svg width="20" height="20" viewBox="0 0 20 20" fill="none" xmlns="http://www.w3.org/2000/svg">
<path d="M14.19 0H5.81C2.17 0 0 2.17 0 5.81V14.18C0 17.83 2.17 20 5.81 20H14.18C17.82 20 19.99 17.83 19.99 14.19V5.81C20 2.17 17.83 0 14.19 0ZM5.75 7.14C5.75 6.33 6.41 5.66 7.23 5.66C8.04 5.66 8.71 6.32 8.71 7.14C8.71 7.95 8.05 8.62 7.23 8.62C6.41 8.61 5.75 7.95 5.75 7.14ZM6.82 14.02C6.63 14.02 6.44 13.95 6.29 13.8C6 13.51 6 13.04 6.29 12.74L12.84 6.19C13.13 5.9 13.61 5.9 13.9 6.19C14.19 6.48 14.19 6.96 13.9 7.25L7.35 13.8C7.2 13.95 7.01 14.02 6.82 14.02ZM13.77 14.34C12.96 14.34 12.29 13.68 12.29 12.86C12.29 12.05 12.95 11.38 13.77 11.38C14.58 11.38 15.25 12.04 15.25 12.86C15.25 13.68 14.59 14.34 13.77 14.34Z" fill="#00A45F"/>
</svg>
