<svg width="47" height="47" viewBox="0 0 47 47" fill="none" xmlns="http://www.w3.org/2000/svg">
<rect width="47" height="47" rx="23.5" fill="#E7DAD5"/>
<g clip-path="url(#clip0_102_2033)">
<path d="M10.2588 23.4983L12.4773 34.0969C12.7836 35.5604 14.0741 36.6087 15.5694 36.6087H31.4305C32.9258 36.6087 34.2163 35.5604 34.5226 34.0969L36.7411 23.4984H10.2588V23.4983Z" fill="#FF6465"/>
<path d="M31.0925 27.959C30.3281 27.959 29.7085 28.5787 29.7085 29.343V32.8222C29.7085 33.5866 30.3282 34.2062 31.0925 34.2062C31.8568 34.2062 32.4765 33.5865 32.4765 32.8222V29.343C32.4765 28.5786 31.8568 27.959 31.0925 27.959Z" fill="#FFD782"/>
<path d="M26.0305 27.959C25.266 27.959 24.6465 28.5787 24.6465 29.343V32.8222C24.6465 33.5866 25.2662 34.2062 26.0305 34.2062C26.7949 34.2062 27.4145 33.5865 27.4145 32.8222V29.343C27.4146 28.5786 26.7949 27.959 26.0305 27.959Z" fill="#FFD782"/>
<path d="M20.969 27.959C20.2045 27.959 19.585 28.5787 19.585 29.343V32.8222C19.585 33.5866 20.2046 34.2062 20.969 34.2062C21.7333 34.2062 22.353 33.5865 22.353 32.8222V29.343C22.3531 28.5786 21.7334 27.959 20.969 27.959Z" fill="#FFD782"/>
<path d="M15.9074 27.959C15.143 27.959 14.5234 28.5787 14.5234 29.343V32.8222C14.5234 33.5866 15.1431 34.2062 15.9074 34.2062C16.6718 34.2062 17.2914 33.5865 17.2914 32.8222V29.343C17.2916 28.5786 16.6719 27.959 15.9074 27.959Z" fill="#FFD782"/>
<path opacity="0.1" d="M15.2215 34.0969L13.0031 23.4983H10.2588L12.4773 34.0969C12.7836 35.5604 14.0741 36.6087 15.5694 36.6087H18.3137C16.8184 36.6087 15.528 35.5604 15.2215 34.0969Z" fill="black"/>
<path d="M36.6493 21.1624H10.3508C9.06059 21.1624 8.01465 22.2083 8.01465 23.4985C8.01465 24.7888 9.06059 25.8347 10.3508 25.8347H36.6493C37.9396 25.8347 38.9855 24.7888 38.9855 23.4985C38.9855 22.2082 37.9395 21.1624 36.6493 21.1624Z" fill="#FFD782"/>
<path opacity="0.1" d="M10.7589 23.4983C10.7589 22.208 11.8048 21.1621 13.0951 21.1621H10.3508C9.06059 21.1621 8.01465 22.208 8.01465 23.4983C8.01465 24.7885 9.06059 25.8345 10.3508 25.8345H13.0951C11.8049 25.8345 10.7589 24.7885 10.7589 23.4983Z" fill="black"/>
<path d="M14.7608 23.7673C13.6968 23.3673 13.1585 22.1806 13.5585 21.1166L17.0886 11.7259C17.4886 10.6619 18.6754 10.1236 19.7394 10.5236C20.8034 10.9236 21.3417 12.1104 20.9417 13.1744L17.4116 22.565C17.0116 23.629 15.8247 24.1672 14.7608 23.7673Z" fill="#FF6465"/>
<path d="M32.2398 23.7674C33.3038 23.3674 33.8421 22.1806 33.4421 21.1166L29.9121 11.7259C29.5121 10.6619 28.3253 10.1236 27.2613 10.5236C26.1973 10.9236 25.659 12.1104 26.059 13.1744L29.5891 22.5651C29.989 23.6291 31.1758 24.1673 32.2398 23.7674Z" fill="#FF6465"/>
<path d="M15.5179 22.5002C15.9321 22.5002 16.2678 22.1645 16.2678 21.7504C16.2678 21.3362 15.9321 21.0005 15.5179 21.0005C15.1038 21.0005 14.7681 21.3362 14.7681 21.7504C14.7681 22.1645 15.1038 22.5002 15.5179 22.5002Z" fill="black"/>
<path d="M31.4823 22.5002C31.8964 22.5002 32.2322 22.1645 32.2322 21.7504C32.2322 21.3362 31.8964 21.0005 31.4823 21.0005C31.0682 21.0005 30.7324 21.3362 30.7324 21.7504C30.7324 22.1645 31.0682 22.5002 31.4823 22.5002Z" fill="black"/>
<path d="M29.1938 29.3407V32.8199C29.1938 33.8668 30.0456 34.7185 31.0925 34.7185C32.1393 34.7185 32.991 33.8668 32.991 32.8199V29.3407C32.991 28.2938 32.1393 27.4421 31.0925 27.4421C30.0457 27.4421 29.1938 28.2938 29.1938 29.3407ZM31.962 29.3407V32.8199C31.962 33.2993 31.5719 33.6894 31.0925 33.6894C30.6131 33.6894 30.223 33.2993 30.223 32.8199V29.3407C30.223 28.8613 30.6132 28.4713 31.0925 28.4713C31.5719 28.4712 31.962 28.8613 31.962 29.3407Z" fill="black"/>
<path d="M24.1323 29.3407V32.8199C24.1323 33.8668 24.984 34.7185 26.0309 34.7185C27.0778 34.7185 27.9294 33.8668 27.9294 32.8199V29.3407C27.9294 28.2938 27.0778 27.4421 26.0309 27.4421C24.984 27.4421 24.1323 28.2938 24.1323 29.3407ZM26.9004 29.3407V32.8199C26.9004 33.2993 26.5103 33.6894 26.031 33.6894C25.5515 33.6894 25.1615 33.2993 25.1615 32.8199V29.3407C25.1615 28.8613 25.5516 28.4713 26.031 28.4713C26.5103 28.4712 26.9004 28.8613 26.9004 29.3407Z" fill="black"/>
<path d="M19.0708 29.3407V32.8199C19.0708 33.8668 19.9225 34.7185 20.9694 34.7185C22.0162 34.7185 22.8679 33.8668 22.8679 32.8199V29.3407C22.8679 28.2938 22.0162 27.4421 20.9694 27.4421C19.9225 27.4421 19.0708 28.2938 19.0708 29.3407ZM21.8389 29.3407V32.8199C21.8389 33.2993 21.4489 33.6894 20.9695 33.6894C20.4901 33.6894 20.1001 33.2993 20.1001 32.8199V29.3407C20.1001 28.8613 20.4901 28.4713 20.9695 28.4713C21.4489 28.4712 21.8389 28.8613 21.8389 29.3407Z" fill="black"/>
<path d="M14.0088 29.3407V32.8199C14.0088 33.8668 14.8605 34.7185 15.9074 34.7185C16.9542 34.7185 17.806 33.8668 17.806 32.8199V29.3407C17.806 28.2938 16.9542 27.4421 15.9074 27.4421C14.8605 27.4421 14.0088 28.2938 14.0088 29.3407ZM16.7769 29.3407V32.8199C16.7769 33.2993 16.3868 33.6894 15.9074 33.6894C15.428 33.6894 15.038 33.2993 15.038 32.8199V29.3407C15.038 28.8613 15.428 28.4713 15.9074 28.4713C16.3868 28.4713 16.7769 28.8613 16.7769 29.3407Z" fill="black"/>
<path d="M36.6493 20.6452H33.8153C33.8153 20.6452 30.3953 11.5473 30.3933 11.5422C29.9021 10.2354 28.3848 9.54873 27.0798 10.0393C25.7519 10.5385 25.0776 12.0249 25.5768 13.3528L28.3181 20.6451H22.3461C22.0619 20.6451 21.8315 20.8755 21.8315 21.1597C21.8315 21.4439 22.0619 21.6742 22.3461 21.6742H28.7049C28.7049 21.6742 29.1068 22.7434 29.1069 22.7435C29.4775 23.7292 30.4628 24.4115 31.5156 24.4115C31.9357 24.4115 32.3581 24.304 32.7285 24.1062C33.6249 23.6274 34.1453 22.6652 34.0826 21.6742H36.6492C37.6537 21.6742 38.4709 22.4914 38.4709 23.4959C38.4709 24.5003 37.6537 25.3175 36.6492 25.3175H10.3507C9.34625 25.3174 8.52912 24.5002 8.52912 23.4958C8.52912 22.4914 9.34631 21.6742 10.3507 21.6742H12.9173C12.8546 22.665 13.3749 23.627 14.2711 24.1059C15.2939 24.6524 16.6198 24.4242 17.3959 23.5595C17.6781 23.2452 17.8429 22.8769 17.9897 22.4863L18.2951 21.6741H20.288C20.5722 21.6741 20.8026 21.4437 20.8026 21.1595C20.8026 20.8754 20.5722 20.645 20.288 20.645H18.6819L21.4231 13.3529C21.9223 12.025 21.2481 10.5385 19.9201 10.0394C18.6071 9.54573 17.0985 10.2336 16.6066 11.5423L15.7718 13.763C15.6718 14.029 15.8064 14.3257 16.0724 14.4258C16.3383 14.5257 16.6351 14.3912 16.7351 14.1252C16.7351 14.1252 17.569 11.907 17.5699 11.9045C17.866 11.1169 18.7693 10.7062 19.5579 11.0027C20.3459 11.2988 20.7564 12.2016 20.4598 12.9909L16.9296 22.3815C16.9109 22.4314 16.8899 22.4796 16.8667 22.5262C16.519 23.226 15.6885 23.564 14.9415 23.2833C14.9171 23.2741 14.8932 23.2644 14.8696 23.2541C14.1384 22.936 13.7621 22.0898 14.0279 21.3297C14.0282 21.3287 14.0284 21.3277 14.0287 21.3267C14.0324 21.3162 14.0357 21.3057 14.0398 21.2952L15.9398 16.2407C16.0398 15.9747 15.9052 15.678 15.6392 15.5779C15.3733 15.478 15.0766 15.6124 14.9765 15.8785L13.1846 20.6452H10.3507C8.77881 20.6452 7.5 21.924 7.5 23.4959C7.5 25.0608 8.7675 26.3347 10.3297 26.3461L11.9736 34.1999C12.3279 35.8924 13.8401 37.1208 15.5693 37.1208H31.4305C33.1597 37.1208 34.6719 35.8923 35.0262 34.1999L35.7314 30.8306C35.7897 30.5525 35.6114 30.2797 35.3333 30.2216C35.0553 30.1633 34.7825 30.3417 34.7243 30.6198L34.0189 33.989C33.7639 35.2074 32.6753 36.0917 31.4305 36.0917H15.5694C14.3246 36.0917 13.236 35.2074 12.9809 33.989L11.3812 26.3466H35.6187L35.1497 28.5874C35.0915 28.8655 35.2698 29.1382 35.5479 29.1964C35.8261 29.2546 36.0988 29.0764 36.1569 28.7982L36.6702 26.346C38.2325 26.3347 39.5 25.0607 39.5 23.4959C39.5 21.924 38.2212 20.6452 36.6493 20.6452ZM32.1303 23.254C31.7226 23.4305 31.2381 23.4204 30.8391 23.2246C30.8377 23.224 30.8364 23.2233 30.8351 23.2227C30.5271 23.0705 30.2723 22.8177 30.121 22.4999C30.1181 22.4938 30.1153 22.4877 30.1124 22.4814C30.0974 22.4487 30.0832 22.4157 30.0703 22.3814L29.6642 21.3009L26.5401 12.9907C26.2406 12.194 26.6452 11.3022 27.4419 11.0025C28.2276 10.7072 29.1342 11.1175 29.43 11.9044L32.9601 21.295C32.9641 21.3055 32.9673 21.316 32.9711 21.3265C32.9714 21.3275 32.9716 21.3286 32.9719 21.3295C33.2377 22.0898 32.8614 22.936 32.1303 23.254Z" fill="black"/>
</g>
<defs>
<clipPath id="clip0_102_2033">
<rect width="32" height="32" fill="white" transform="translate(7.5 7.5)"/>
</clipPath>
</defs>
</svg>
